<svg xmlns="http://www.w3.org/2000/svg" viewBox="0 0 512 512" xmlns:v="https://vecta.io/nano">
    <path d="M268.8 251.8l-.1-96c0-5.8 2-8.6 7.4-10.6 53-19.3 111.7 3.7 137 54.1 5.2 10.3 8.8 21.2 10.1 32.7.7 6.4.9 6.4 7.3 4.5 36.8-11 74.1 13.4 79.7 51.4 5 34-21.1 67.4-55.3 70.3-4 .3-8 .6-11.9.6H280.6c-9.8 0-11.7-1.9-11.7-11.5l-.1-95.5z"
          fill="white"/>
    <path d="M245.9 290.6c1.1-20.1.8-41.1 1.5-62l.7-40 .8-26.5c.1-5.5 2.5-8.8 6.5-9 4.4-.2 7.3 3.2 7.4 8.7l1.3 68.4 1.6 61.9c.2 16.5-1.5 32.9-2.4 49.3-.2 3.5-.1 7-.7 10.5-.7 3.8-2.9 6.3-7.2 6.1s-6.2-2.9-6.4-6.9c-1.3-19.8-2.7-39.7-3.1-60.5zm-18.7-6l.1-84.4.6-26.9c.1-4.6 2.8-8 6.4-8.1s6.5 3.3 6.6 7.8l.8 29.4 1.5 82.9c.9 22.2-1.9 44.2-2.3 66.3-.1 4.2-2.5 6.5-6.3 7-3.4.5-6.5-3-6.7-7.2-.8-22.3-2.7-44.5-.7-66.8zm-4.8 9.7l-3.4 58.3c-.2 3.8-2.4 6.1-6.1 5.9-3.5-.2-5.7-2.5-5.9-6.2l-2-35.4c-1.2-20.3 0-40.6.2-60.9l1.7-61.9c.1-5.2 2.4-8.4 6.2-8 4.5.5 5.8 3.6 5.9 7.8l2.2 80.4c.1 6.7.6 13.3 1.2 20zm-39.1 7.4l2-83.2c.4-9.3.5-18.6.7-27.9.1-4.1.9-7.5 5.8-7.6 4.8-.2 5.4 3.5 5.9 7.1.1.8 0 1.7.1 2.5l2.5 94.8c1 21.4-2.3 42.4-2.6 63.7 0 3.6-1 7.3-5.8 7.1-4.9-.1-5.7-3.5-5.9-7.6l-2.7-48.9zm-4.2-14.6c1.3 19.7-1.9 42.4-3.1 65.1-.2 3.3-1.2 6-5.2 5.9-4.2-.1-5.3-3-5.5-6.4l-2.3-41.9c-1.1-27.5.7-54.9 1.4-82.3l.8-37.4c.1-1.5 0-3 .2-4.5.5-3 1.6-5.7 5.2-5.5 3.7.2 5.1 2.6 5.3 6l.7 16.9 2.5 84.1zm-37.2 8.2l2.4-86 .7-19c.1-3.3 1.3-5.9 4.6-6.1 3.8-.3 5 2.8 5.2 6 .5 8 .7 16 .8 23.9.5 30.1 3.2 60.2 2.4 90.4-.4 15.8-2 31.5-3.1 47.3-.2 2.9-.7 6.3-4.9 6.2-4.4-.1-4.8-3.2-4.9-6.6-1.1-19.7-3.6-39.4-3.2-56.1zm-20.6 1.1l3-93.2c.1-2 .4-4 .7-5.9.3-2.2 1.5-3.8 3.8-4 2.5-.2 4 1.4 4.4 3.8.3 1.5.6 2.9.6 4.4l2.4 64.8c.6 10.6.9 21.3 1.3 31.9.4 9.4-1.1 18.9-1.8 28.3l-1.8 21.8c-.1 1.3 0 2.7-.2 4-.5 2.8-.8 6-4.5 6.2-3.8.2-4.4-3-4.7-5.9l-2.4-33.3-1.2-22.9h.4zm-20.2-4.8l3.1-72.5c.1-1.9.3-3.7 1.6-5.1 1-1.1 2.3-1.2 3.7-.9 2 .4 2.6 2 2.7 3.7l1.8 27.4 2.8 50.3c.6 11.7-1.7 23.2-2.2 34.8-.3 6.3-1 12.6-1.6 18.9-.2 2-.3 4-.6 5.9-.3 2.3-1.3 4.2-4.1 4-2.8-.1-3.6-2.2-3.9-4.4-.7-4.3-.7-8.6-.8-12.9-.7-14.8-3.1-29.5-2.5-49.2zm-4.8 8.8l-3.8 44-.7 8.4c-.3 2.3-.7 5-3.8 4.9-3.1 0-3.5-2.7-3.7-5l-2.1-27.8c-.6-7.4-1.8-14.9-1.7-22.3.1-9.4 1.1-18.9 1.9-28.3.5-7 1.2-13.9 1.8-20.8.1-1.5.3-3 .5-4.4.3-2 1.3-3.6 3.5-3.5 2.1.1 3.3 1.7 3.5 3.6.4 3.1.6 6.3.9 9.4l3.7 41.8zm-20.3-.2l-3.4 37.2-1.5 15.3c-.2 2.2-.5 4.2-3.2 4.2-2.4 0-2.8-1.8-3-3.8l-2.8-30.2-1.8-19.3c-.6-5.5.7-10.9 1-16.4.6-12.6 1.9-25.1 2.9-37.7.1-1.3.5-2.6.7-3.9.2-1.8.8-3.4 2.8-3.5s3 1.2 3.2 3.1l5.1 55zm-20.3-.1l-3.2 31.4-1.7 15.8-.5 4.4c-.3 1.5-1 3-2.8 2.9s-2.3-1.5-2.5-3.2c-1-10.2-1.6-20.5-3-30.7-3.4-24.7 1.4-49 3-73.4.1-1.6.5-3.2 2.3-3.3 2.5-.2 3 1.9 3.2 3.7.8 6.4 1.3 12.9 1.9 19.3l3.3 33.1zm-20.1.4L30 344c-.2 1.4-.5 2.9-2.2 2.8-2.2-.1-2.4-2.1-2.5-3.7-1.1-9.7-1.8-19.5-3.3-29.2-2.5-16.7 1.1-33.1 2.7-49.5.3-2.6.3-5.3.6-8 .2-1.4.4-3.3 2.4-3.3s2.1 1.7 2.3 3.2l3.8 29.1c.5 5.1 1.8 10 1.8 15.1zm-20.1-.1L11 327.6c-.2 1.2-.6 2.3-2.1 2.3-1.8 0-2-1.5-2.2-2.8-2.2-14.4-4.9-28.7-1.5-43.3.8-3.4 1-6.9 1.5-10.3.2-1.3.4-2.9 2-3 1.7-.2 2.1 1.3 2.3 2.7l4.5 27.2z"
          fill="white"/>
</svg>